<?xml version="1.0" encoding="UTF-8" standalone="no"?>
<svg
   xmlns:dc="http://purl.org/dc/elements/1.1/"
   xmlns:cc="http://creativecommons.org/ns#"
   xmlns:rdf="http://www.w3.org/1999/02/22-rdf-syntax-ns#"
   xmlns:svg="http://www.w3.org/2000/svg"
   xmlns="http://www.w3.org/2000/svg"
   xmlns:sodipodi="http://sodipodi.sourceforge.net/DTD/sodipodi-0.dtd"
   xmlns:inkscape="http://www.inkscape.org/namespaces/inkscape"
   width="100.20633mm"
   height="40.897758mm"
   viewBox="0 0 100.20633 40.897758"
   version="1.1"
   id="svg647"
   inkscape:version="1.0.1 (3bc2e813f5, 2020-09-07)"
   sodipodi:docname="drawing2.svg">
  <defs
     id="defs641">
    <inkscape:perspective
       sodipodi:type="inkscape:persp3d"
       inkscape:vp_x="-110.31788 : 21.303645 : 1"
       inkscape:vp_y="0 : 994.6843 : 0"
       inkscape:vp_z="150.21512 : 21.303645 : 1"
       inkscape:persp3d-origin="19.948619 : 11.356801 : 1"
       id="perspective806" />
  </defs>
  <sodipodi:namedview
     id="base"
     pagecolor="#ffffff"
     bordercolor="#666666"
     borderopacity="1.0"
     inkscape:pageopacity="0.0"
     inkscape:pageshadow="2"
     inkscape:zoom="3.9790871"
     inkscape:cx="176.42083"
     inkscape:cy="91.091451"
     inkscape:document-units="mm"
     inkscape:current-layer="layer1"
     inkscape:document-rotation="0"
     showgrid="false"
     inkscape:window-width="1998"
     inkscape:window-height="1146"
     inkscape:window-x="199"
     inkscape:window-y="192"
     inkscape:window-maximized="0"
     inkscape:pagecheckerboard="true"
     fit-margin-top="2"
     fit-margin-left="2"
     fit-margin-right="2"
     fit-margin-bottom="2">
    <inkscape:grid
       type="xygrid"
       id="grid798"
       originx="-49.259436"
       originy="-9.0295999" />
  </sodipodi:namedview>
  <metadata
     id="metadata644">
    <rdf:RDF>
      <cc:Work
         rdf:about="">
        <dc:format>image/svg+xml</dc:format>
        <dc:type
           rdf:resource="http://purl.org/dc/dcmitype/StillImage" />
        <dc:title></dc:title>
      </cc:Work>
    </rdf:RDF>
  </metadata>
  <g
     inkscape:label="Layer 1"
     inkscape:groupmode="layer"
     id="layer1"
     transform="translate(-49.259436,-9.0296003)">
    <path
       sodipodi:type="spiral"
       style="fill:#fea75f;fill-rule:evenodd;stroke:#000000;stroke-width:0.264583"
       id="path804"
       sodipodi:cx="68.506798"
       sodipodi:cy="31.728764"
       sodipodi:expansion="1"
       sodipodi:revolution="3"
       sodipodi:radius="18.676624"
       sodipodi:argument="-19.163307"
       sodipodi:t0="0"
       d="m 68.506798,31.728764 c 0.890703,-0.289006 0.829014,1.058064 0.480345,1.480406 -0.944871,1.144521 -2.703901,0.508807 -3.441158,-0.519715 -1.31878,-1.839785 -0.301886,-4.351977 1.519776,-5.401911 2.673363,-1.54082 6.026532,-0.100241 7.362663,2.519837 1.780852,3.492153 -0.09847,7.711028 -3.519898,9.323415 -4.305517,2.029025 -9.400393,-0.295528 -11.284167,-4.519959 -2.281504,-5.116351 0.491601,-11.092527 5.52002,-13.244919 5.925818,-2.53652 12.786391,0.687051 15.205671,6.520081 2.793155,6.734464 -0.882087,14.481411 -7.520142,17.166423 -7.54258,3.050882 -16.177241,-1.076833 -19.127176,-8.520203 -3.309381,-8.350336 1.271371,-17.87366 9.520265,-21.087927 9.157835,-3.568446 19.570522,1.465752 23.048679,10.520325" />
    <g
       sodipodi:type="inkscape:box3d"
       id="g808"
       style="fill:#fea75f"
       inkscape:perspectiveID="#perspective806"
       inkscape:corner0="-0.14101645 : 0.017263012 : 0 : 1"
       inkscape:corner7="-0.29354625 : 0.0010868034 : 0.25 : 1">
      <path
         sodipodi:type="inkscape:box3dside"
         id="path820"
         style="fill:#e9e9ff;fill-rule:evenodd;stroke:none;stroke-width:1.60981;stroke-linejoin:round"
         inkscape:box3dsidetype="11"
         d="m 115.13871,22.109277 28.09892,-1.038885 v 16.82279 l -28.09892,-1.274924 z"
         points="143.23763,21.070392 143.23763,37.893182 115.13871,36.618258 115.13871,22.109277 " />
      <path
         sodipodi:type="inkscape:box3dside"
         id="path810"
         style="fill:#353564;fill-rule:evenodd;stroke:none;stroke-width:1.60981;stroke-linejoin:round"
         inkscape:box3dsidetype="6"
         d="M 90.593468,20.213305 V 38.945003 L 115.13871,36.618258 V 22.109277 Z"
         points="90.593468,38.945003 115.13871,36.618258 115.13871,22.109277 90.593468,20.213305 " />
      <path
         sodipodi:type="inkscape:box3dside"
         id="path818"
         style="fill:#afafde;fill-rule:evenodd;stroke:none;stroke-width:1.60981;stroke-linejoin:round"
         inkscape:box3dsidetype="13"
         d="m 90.593468,38.945003 32.743032,2.22846 19.90113,-3.280281 -28.09892,-1.274924 z"
         points="123.3365,41.173463 143.23763,37.893182 115.13871,36.618258 90.593468,38.945003 " />
      <path
         sodipodi:type="inkscape:box3dside"
         id="path812"
         style="fill:#4d4d9f;fill-rule:evenodd;stroke:none;stroke-width:1.60981;stroke-linejoin:round"
         inkscape:box3dsidetype="5"
         d="m 90.593468,20.213305 32.743032,-1.815884 19.90113,2.672971 -28.09892,1.038885 z"
         points="123.3365,18.397421 143.23763,21.070392 115.13871,22.109277 90.593468,20.213305 " />
      <path
         sodipodi:type="inkscape:box3dside"
         id="path816"
         style="fill:#d7d7ff;fill-rule:evenodd;stroke:none;stroke-width:1.60981;stroke-linejoin:round"
         inkscape:box3dsidetype="14"
         d="m 123.3365,18.397421 v 22.776042 l 19.90113,-3.280281 v -16.82279 z"
         points="123.3365,41.173463 143.23763,37.893182 143.23763,21.070392 123.3365,18.397421 " />
      <path
         sodipodi:type="inkscape:box3dside"
         id="path814"
         style="fill:#8686bf;fill-rule:evenodd;stroke:none;stroke-width:1.60981;stroke-linejoin:round"
         inkscape:box3dsidetype="3"
         d="M 90.593468,20.213305 123.3365,18.397421 v 22.776042 l -32.743032,-2.22846 z"
         points="123.3365,18.397421 123.3365,41.173463 90.593468,38.945003 90.593468,20.213305 " />
    </g>
    <path
       style="fill:#fea75f;stroke-width:0.251314"
       d="M 66.07357,139.21974 C 58.691796,138.76389 52.036752,136.94551 44.9632,133.4517 38.845827,130.43017 34.006759,126.89359 29.255984,121.97225 20.649387,113.05665 15.355192,101.99987 13.78467,89.660832 13.450098,87.032219 13.390442,85.162536 13.501764,80.794243 13.649896,74.981497 13.99724,72.37157 15.287805,67.373996 19.705254,50.267914 31.963979,35.093591 47.756627,27.182835 c 6.533345,-3.272644 12.975647,-5.209193 20.704425,-6.22373 4.434944,-0.582164 13.703,-0.391708 17.968946,0.369257 11.541147,2.058724 21.521092,6.411423 30.779612,13.424354 3.09048,2.340901 8.55258,7.644186 11.26188,10.934421 3.08957,3.752042 6.1002,8.414059 8.22303,12.733504 2.41251,4.908852 2.70765,5.646275 2.31471,5.783405 -1.87414,0.654049 -20.54905,6.656634 -20.70975,6.656634 -0.1188,0 -0.92436,-1.385368 -1.79014,-3.078595 -8.0453,-15.734567 -24.821589,-25.714589 -42.016754,-24.995281 -18.802843,0.78656 -34.292901,13.820783 -38.247237,32.183422 -0.794432,3.68908 -0.802135,11.016283 -0.01529,14.541383 2.107776,9.442905 7.076125,16.817091 14.855215,22.048601 7.789558,5.23854 17.92675,6.90283 26.649208,4.37516 4.666372,-1.35226 8.861681,-3.85408 12.341588,-7.35975 7.391939,-7.44666 10.06079,-17.959946 6.875823,-27.085718 -0.472498,-1.353835 -0.884487,-2.609008 -0.915529,-2.789273 -0.0678,-0.393703 20.640456,-7.229035 20.940726,-6.912067 0.39444,0.416366 1.72424,4.613113 2.36014,7.448407 3.59856,16.044803 -1.86417,33.540811 -14.21871,45.539611 -4.40705,4.28017 -7.898943,6.75418 -13.2502,9.38781 -5.263197,2.59029 -12.244193,4.53814 -17.627051,4.91831 -4.312097,0.30455 -5.211004,0.31963 -8.167702,0.13704 z"
       id="path836"
       transform="matrix(0.26458333,0,0,0.26458333,49.259436,9.0296003)" />
    <path
       style="fill:#fea75f;stroke-width:0.251314"
       d="M 66.827511,139.30039 C 59.050273,138.8152 52.104056,136.97586 45.214514,133.57734 38.826732,130.42633 34.080023,126.96844 29.185348,121.90037 20.675782,113.08935 15.526965,102.36533 13.790068,89.834882 13.261878,86.024375 13.395494,76.803237 14.032234,73.122506 16.264471,60.21886 22.12002,48.691678 31.121013,39.481689 36.486404,33.991716 41.70311,30.183971 48.230281,26.993397 c 8.856144,-4.329009 16.126812,-6.093588 26.072018,-6.327636 6.234568,-0.146722 9.392566,0.107129 14.766495,1.186984 12.861896,2.584514 24.489056,8.787183 34.145106,18.215178 5.55063,5.419535 9.50676,10.662452 12.83297,17.00708 1.78955,3.413524 3.32768,6.947652 3.08367,7.085299 -0.49385,0.278569 -20.72578,6.718267 -20.89936,6.652136 -0.11176,-0.04258 -0.82421,-1.280864 -1.58323,-2.751749 -2.60159,-5.041538 -5.16364,-8.45314 -9.4381,-12.567687 C 96.534107,45.216667 81.759084,40.766236 67.758521,43.609743 c -4.688839,0.9523 -9.992073,3.133664 -13.999334,5.758307 -2.642742,1.730922 -3.604802,2.51385 -6.121889,4.982032 -6.067485,5.949601 -9.861176,13.004654 -11.513383,21.41122 -0.688407,3.502668 -0.622933,10.245124 0.132711,13.666577 1.628598,7.374068 4.78616,13.103061 9.977868,18.103571 3.950592,3.80511 8.001084,6.27378 13.013357,7.93131 17.1914,5.68511 34.679437,-3.87657 38.535351,-21.069418 0.253124,-1.128626 0.405035,-3.005737 0.409584,-5.061088 0.0079,-3.554157 -0.480512,-6.194921 -1.701327,-9.199366 -0.349995,-0.861344 -0.581594,-1.620842 -0.514664,-1.687772 0.20846,-0.20846 19.822475,-6.572937 20.465285,-6.640704 0.55322,-0.05832 0.68192,0.141542 1.42007,2.20532 4.16191,11.636272 3.2539,24.897163 -2.51163,36.680458 -4.89549,10.00513 -12.98604,18.22991 -22.735403,23.11262 -4.782398,2.39513 -8.466135,3.64585 -13.68146,4.64518 -2.508155,0.48061 -8.746772,1.07502 -10.221291,0.97389 -0.345557,-0.0237 -1.193741,-0.0784 -1.884855,-0.12149 z"
       id="path838"
       transform="matrix(0.26458333,0,0,0.26458333,49.259436,9.0296003)" />
    <path
       style="fill:#5a315c;stroke-width:0.24944882;fill-opacity:0.33739838;stroke-miterlimit:4;stroke-dasharray:none"
       d="m 218.13894,117.21202 c -32.82788,-2.25732 -60.16769,-4.11015 -60.75514,-4.11741 l -1.06808,-0.0132 V 77.646156 42.210893 h 0.61731 c 0.87883,0 118.17474,-6.4818 120.83014,-6.677102 l 2.199,-0.161734 v 43.001362 43.001361 l -1.06809,-0.0293 c -0.58744,-0.0161 -27.92726,-1.87617 -60.75514,-4.13349 z"
       id="path1669"
       transform="matrix(0.26458333,0,0,0.26458333,49.259436,9.0296003)" />
  </g>
</svg>
